<?xml version="1.0" standalone="no"?>
<!DOCTYPE svg PUBLIC "-//W3C//DTD SVG 20010904//EN"
 "http://www.w3.org/TR/2001/REC-SVG-20010904/DTD/svg10.dtd">
<svg version="1.0" xmlns="http://www.w3.org/2000/svg"
 width="1000.000000pt" height="1000.000000pt" viewBox="0 0 1000.000000 1000.000000"
 preserveAspectRatio="xMidYMid meet">
<metadata>
Created by potrace 1.14, written by Peter Selinger 2001-2017
</metadata>
<g transform="translate(0.000000,1000.000000) scale(0.100000,-0.100000)"
fill="#000000" stroke="none">
<path d="M4670 9989 c-638 -53 -1134 -175 -1690 -416 -1101 -477 -2042 -1411
-2536 -2515 -513 -1148 -582 -2421 -197 -3603 245 -752 641 -1401 1196 -1963
708 -717 1584 -1192 2563 -1391 360 -73 591 -95 994 -95 329 0 442 7 705 45
1274 183 2411 838 3221 1856 408 512 732 1160 903 1803 295 1116 206 2252
-263 3322 -348 795 -947 1528 -1668 2041 -678 482 -1453 783 -2278 887 -297
37 -706 50 -950 29z m1097 -2283 c247 -95 787 -305 1201 -466 l754 -292 361
67 c271 51 392 78 482 109 113 38 127 40 235 41 111 0 118 -1 195 -36 44 -21
107 -44 140 -54 152 -42 195 -74 195 -147 0 -75 -64 -141 -208 -213 -201 -101
-616 -212 -1026 -275 -71 -10 -135 -25 -141 -32 -7 -7 -110 -227 -229 -488
-120 -261 -224 -485 -232 -497 -25 -39 -56 -52 -147 -61 l-87 -8 0 332 0 333
-141 126 c-130 116 -143 125 -172 120 -137 -23 -775 -33 -1030 -16 -83 5 -100
3 -107 -9 -4 -8 -17 -59 -29 -113 -22 -97 -24 -99 -59 -114 -25 -10 -44 -12
-59 -7 -12 5 -72 75 -132 155 l-109 146 -51 7 c-79 10 -101 22 -101 51 0 14
10 35 22 47 l21 21 -69 66 c-78 73 -305 286 -368 343 l-41 38 24 20 c16 14 38
20 72 20 42 0 86 -17 296 -115 135 -64 247 -114 249 -112 2 2 -3 82 -11 177
-8 95 -13 175 -11 177 2 3 31 7 65 10 87 8 119 -15 316 -227 92 -99 175 -180
184 -180 23 0 543 99 549 105 3 2 -51 63 -119 134 l-124 130 -607 383 c-335
211 -607 386 -605 390 1 4 26 25 56 48 89 65 81 67 598 -134z m-400 -1472 c-3
-3 -12 -4 -19 -1 -8 3 -5 6 6 6 11 1 17 -2 13 -5z m-37 -8 c0 -2 -60 -23 -132
-46 -73 -23 -151 -48 -173 -55 -22 -8 -94 -30 -160 -50 -66 -20 -138 -42 -160
-50 -22 -7 -101 -32 -175 -55 -205 -64 -597 -195 -765 -257 -792 -292 -1408
-642 -1870 -1063 -126 -114 -296 -292 -350 -365 -33 -44 -63 -82 -66 -85 -15
-13 -80 -123 -75 -127 3 -3 44 11 92 32 76 32 163 63 186 65 4 0 26 7 48 15
22 8 40 12 40 10 0 -2 14 0 31 5 17 5 57 12 88 16 31 3 65 8 76 11 49 11 366
10 450 -2 93 -13 233 -50 250 -66 5 -5 17 -9 27 -9 10 0 18 -3 18 -8 0 -4 13
-13 29 -20 45 -20 115 -93 141 -148 28 -59 37 -147 21 -211 -13 -52 -60 -156
-73 -161 -4 -2 -8 -10 -8 -18 0 -8 -4 -14 -8 -14 -5 0 -13 -10 -19 -23 -19
-42 -202 -224 -300 -299 -185 -141 -383 -249 -578 -313 -96 -32 -128 -39 -240
-54 -170 -22 -350 18 -465 104 -148 109 -245 267 -268 433 -9 61 -7 170 2 208
11 41 -17 28 -110 -53 -140 -122 -270 -260 -344 -365 -18 -27 -35 -48 -37 -48
-6 0 61 115 69 118 4 2 8 9 8 16 0 7 8 21 18 32 9 10 25 32 35 47 21 33 36 51
128 156 63 73 153 161 230 227 24 20 40 46 49 77 7 26 17 50 21 53 5 3 9 12 9
20 0 15 77 175 119 248 32 56 129 203 144 218 7 7 35 42 62 78 122 160 472
479 695 634 116 80 284 189 368 237 89 51 402 209 482 243 191 80 249 104 355
143 284 106 893 285 1085 318 19 3 91 19 160 35 167 38 307 68 350 75 19 3 62
12 95 20 33 7 77 16 97 19 21 3 59 11 85 17 27 5 65 13 86 16 20 2 50 9 65 13
30 9 62 12 62 6z"/>
<path d="M1998 4075 c-2 -1 -46 -5 -98 -9 -169 -11 -352 -62 -520 -144 -105
-52 -96 -39 -152 -207 -27 -82 -33 -262 -11 -325 40 -116 145 -216 255 -246
268 -70 797 160 1101 481 91 96 144 204 125 254 -14 39 -57 79 -108 103 -25
11 -52 24 -61 28 -19 10 -94 31 -124 35 -11 2 -54 8 -95 14 -65 10 -305 22
-312 16z"/>
</g>
</svg>
